#define A_width 18
#define A_height 35
static char A_bits[] = {
  0x00, 0x00, 0x00, 0x00, 0x00, 0x00, 0x00, 0x00, 0x00, 0x00, 0x00, 0x00, 
  0x00, 0x00, 0x00, 0x00, 0x00, 0x00, 0x00, 0x00, 0x00, 0x00, 0x00, 0x00, 
  0x00, 0x03, 0x00, 0x80, 0x03, 0x00, 0x80, 0x03, 0x00, 0x80, 0x07, 0x00, 
  0x80, 0x07, 0x00, 0x80, 0x07, 0x00, 0x80, 0x06, 0x00, 0xC0, 0x04, 0x00, 
  0xC0, 0x06, 0x00, 0xC0, 0x06, 0x00, 0xC0, 0x0F, 0x00, 0xE0, 0x0F, 0x00, 
  0xE0, 0x0F, 0x00, 0xE0, 0x0F, 0x00, 0xE0, 0x1C, 0x00, 0x60, 0x18, 0x00, 
  0x30, 0x18, 0x00, 0x10, 0x18, 0x00, 0x30, 0x08, 0x00, 0x00, 0x00, 0x00, 
  0x00, 0x00, 0x00, 0x00, 0x00, 0x00, 0x00, 0x00, 0x00, 0x00, 0x00, 0x00, 
  0x00, 0x00, 0x00, 0x00, 0x00, 0x00, 0x00, 0x00, 0x00, };
